# xmcd
#
# Track frame offsets:
#	150
#	19957
#	44072
#	68231
#	85628
#	110565
#	130797
#	150929
#
# Disc length: 2350 seconds
#
# Revision: 1
# Processed by: cddbd v1.5PL3 Copyright (c) Steve Scherf et al.
# Submitted via: CDex 1.50Beta5
#
DISCID=61092c08
DTITLE=LUNA SEA - SINGLES Disc 1
DYEAR=1997
DGENRE=Rock
TTITLE0=BELIEVE
TTITLE1=IN MY DREAM
TTITLE2=ROSIER
TTITLE3=TRUE BLUE
TTITLE4=MOTHER
TTITLE5=DESIRE
TTITLE6=END OF SORROW
TTITLE7=IN SILENCE
EXTD=
EXTT0=
EXTT1=
EXTT2=
EXTT3=
EXTT4=
EXTT5=
EXTT6=
EXTT7=
PLAYORDER=
